<?xml version="1.0" encoding="UTF-8" standalone="no"?>
<svg
   width="391"
   height="391"
   viewBox="-70.5 -70.5 391 391"
   version="1.1"
   id="svg171"
   sodipodi:docname="grapio.svg"
   inkscape:version="1.2.2 (b0a84865, 2022-12-01)"
   xmlns:inkscape="http://www.inkscape.org/namespaces/inkscape"
   xmlns:sodipodi="http://sodipodi.sourceforge.net/DTD/sodipodi-0.dtd"
   xmlns="http://www.w3.org/2000/svg"
   xmlns:svg="http://www.w3.org/2000/svg">
  <defs
     id="defs175" />
  <sodipodi:namedview
     id="namedview173"
     pagecolor="#ffffff"
     bordercolor="#000000"
     borderopacity="0.25"
     inkscape:showpageshadow="2"
     inkscape:pageopacity="0.0"
     inkscape:pagecheckerboard="0"
     inkscape:deskcolor="#d1d1d1"
     showgrid="false"
     inkscape:zoom="1.9741809"
     inkscape:cx="153.73465"
     inkscape:cy="181.08776"
     inkscape:window-width="1390"
     inkscape:window-height="1205"
     inkscape:window-x="0"
     inkscape:window-y="44"
     inkscape:window-maximized="0"
     inkscape:current-layer="svg171" />
  <rect
     style="fill:#ffffff;stroke-width:0.972837"
     id="rect430"
     width="140"
     height="170"
     x="-13.767612"
     y="-19.339542"
     inkscape:export-filename="grapio-padded.png"
     inkscape:export-xdpi="340"
     inkscape:export-ydpi="340" />
  <rect
     width="103"
     height="93"
     rx="8"
     id="rect132"
     style="fill:#4d4d4d"
     x="4.7323875"
     y="0"
     inkscape:export-filename="rect132.png"
     inkscape:export-xdpi="104.20676"
     inkscape:export-ydpi="104.20676" />
  <g
     id="SvgjsG1457"
     featurekey="symbolFeature-0"
     transform="matrix(0.08974359,0,0,0.08974359,24.822131,15.089744)"
     fill="#ffffff">
    <g
       id="g138">
      <title
         id="title134">background</title>
      <rect
         x="-1"
         y="-1"
         width="702"
         height="702"
         style="fill:none"
         id="rect136" />
    </g>
    <g
       id="g168">
      <title
         id="title140">Layer 1</title>
      <g
         id="g166">
        <g
           id="g144">
          <path
             d="m 222,158.3 c -31,0.7 -57.5,21 -79.5,60.8 -23.1,44.8 -34.5,94.6 -34.3,149.4 0.4,6.6 1.1,7.2 2.2,1.9 9.3,-40.3 19,-71.8 29.1,-94.6 9.9,-22.9 20.9,-41.7 32.9,-56.2 27.6,-32.1 51.5,-37.3 71.8,-15.6 22.2,25.6 34,68.8 35.4,129.4 -1.2,81.5 -11.9,143.1 -32.1,185 -25.3,51 -51.3,68 -77.7,50.8 -36,-28.7 -56,-92.3 -60,-190.6 -1.4,-3.4 -2.7,-0.9 -3.7,7.5 -1.9,10.2 -3.2,21.4 -4,33.3 -3,53.4 4.1,98.7 21.2,135.9 17.5,35.3 40.8,53.2 69.9,53.8 31.4,-0.5 60,-21 85.9,-61.7 25.8,-42.5 42.4,-94.3 49.7,-155.6 2.7,-65.2 -6.1,-120.7 -26.3,-166.5 -20.4,-43.6 -47.1,-66 -80,-67.2"
             id="path142" />
        </g>
        <g
           id="g148">
          <path
             d="M 452,134.1 C 435.9,107.7 405.1,94.8 359.6,95.6 309.3,98 260.4,113 213,140.6 c -5.5,3.6 -5.7,4.6 -0.6,2.9 39.6,-12.1 71.7,-19.5 96.4,-22.1 24.8,-2.9 46.5,-2.8 65.1,0.4 41.6,7.9 58.1,26 49.4,54.4 -11.1,32 -42.6,63.8 -94.4,95.4 C 257.7,311.3 199,332.9 152.7,336.3 95.8,339.9 68.2,325.9 69.9,294.4 77,248.8 122,199.7 205.1,147 c 2.2,-2.9 -0.6,-2.7 -8.3,0.6 -9.8,3.5 -20.1,7.9 -30.9,13.2 -47.7,24.1 -83.5,52.9 -107.1,86.3 -21.8,32.8 -25.7,62 -11.7,87.4 16.1,26.9 48.2,41.4 96.4,43.5 49.7,1.1 102.9,-10.4 159.6,-34.8 57.8,-30.3 101.5,-65.6 131,-106 27.6,-39.5 33.6,-73.8 18.2,-102.9"
             id="path146" />
        </g>
        <g
           id="g152">
          <path
             d="m 588,321.2 c 14.8,-27.2 10.6,-60.3 -12.9,-99.3 -27.3,-42.4 -64.7,-77.2 -112.3,-104.4 -5.9,-3 -6.8,-2.7 -2.8,0.9 30.3,28.2 52.7,52.4 67.4,72.4 14.9,20.1 25.7,38.9 32.2,56.6 14,40 6.5,63.3 -22.4,69.9 -33.3,6.4 -76.5,-5 -129.8,-34 C 337.5,241.5 289.4,201.4 263.2,163.1 231.7,115.6 230,84.7 258.1,70.4 301,53.6 366,68.1 453.2,113.8 c 3.6,0.4 2.1,-1.9 -4.7,-6.9 C 440.6,100.1 431.6,93.4 421.6,86.7 376.9,57.4 334.1,40.9 293.3,37.1 254,34.6 226.8,45.8 211.7,70.7 c -15.3,27.4 -11.8,62.5 10.5,105.2 23.9,43.6 60.5,83.9 109.9,120.8 55.1,34.9 107.6,55.1 157.3,60.4 48,4.1 80.8,-7.8 98.2,-35.7"
             id="path150" />
        </g>
        <g
           id="g156">
          <path
             d="m 494,532.5 c 31,-0.7 57.5,-21 79.5,-60.8 23.1,-44.8 34.5,-94.6 34.3,-149.4 -0.4,-6.6 -1.1,-7.2 -2.2,-1.9 -9.3,40.3 -19,71.8 -29.1,94.6 -9.9,22.9 -20.9,41.7 -32.9,56.2 -27.6,32.1 -51.5,37.3 -71.8,15.6 -22.2,-25.6 -34,-68.8 -35.4,-129.4 1.2,-81.5 11.9,-143.1 32.1,-185 25.3,-51 51.3,-68 77.7,-50.8 36,28.7 56,92.3 60,190.6 1.4,3.4 2.7,0.9 3.7,-7.5 1.9,-10.2 3.2,-21.4 4,-33.3 3,-53.4 -4.1,-98.7 -21.2,-135.9 -17.5,-35.3 -40.8,-53.2 -69.9,-53.8 -31.4,0.5 -60,21 -85.9,61.7 -25.8,42.5 -42.4,94.3 -49.7,155.6 -2.7,65.2 6.1,120.7 26.3,166.5 20.4,43.6 47.1,66 80,67.2"
             id="path154" />
        </g>
        <g
           id="g160">
          <path
             d="m 128,369.6 c -14.8,27.2 -10.6,60.3 12.9,99.3 27.3,42.4 64.7,77.2 112.3,104.4 5.9,3 6.8,2.7 2.8,-0.9 -30.3,-28.2 -52.7,-52.4 -67.4,-72.4 -14.9,-20.1 -25.7,-38.9 -32.2,-56.6 -14,-40 -6.5,-63.3 22.4,-69.9 33.3,-6.4 76.5,5 129.8,34 69.9,41.8 118,81.9 144.2,120.2 31.5,47.5 33.2,78.4 5.1,92.7 C 415,637.2 350,622.7 262.8,577 c -3.6,-0.4 -2.1,1.9 4.7,6.9 7.9,6.8 16.9,13.5 26.9,20.2 44.7,29.3 87.5,45.8 128.3,49.6 39.3,2.5 66.5,-8.7 81.6,-33.6 15.3,-27.4 11.8,-62.5 -10.5,-105.2 C 469.9,471.3 433.3,431 383.9,394.1 328.8,359.2 276.3,339 226.6,333.7 c -48,-4.1 -80.8,7.8 -98.2,35.7"
             id="path158" />
        </g>
        <g
           id="g164">
          <path
             d="m 264,556.7 c 16.1,26.4 46.9,39.3 92.4,38.5 50.3,-2.4 99.2,-17.4 146.6,-45 5.5,-3.6 5.7,-4.6 0.6,-2.9 -39.6,12.1 -71.7,19.5 -96.4,22.1 -24.8,2.9 -46.5,2.8 -65.1,-0.4 -41.6,-7.9 -58.1,-26 -49.4,-54.4 11.1,-32 42.6,-63.8 94.4,-95.4 71.2,-39.7 129.9,-61.3 176.2,-64.7 56.9,-3.6 84.5,10.4 82.8,41.9 -6.9,45.5 -51.9,94.6 -135.1,147.3 -2.2,2.9 0.6,2.7 8.3,-0.6 9.8,-3.5 20.1,-7.9 30.9,-13.2 47.7,-24.1 83.5,-52.9 107.1,-86.3 21.8,-32.8 25.7,-62 11.7,-87.4 -16.1,-26.9 -48.2,-41.4 -96.3,-43.5 -49.7,-1.1 -102.9,10.4 -159.6,34.8 -57.8,30.3 -101.5,65.6 -131,106 -27.6,39.5 -33.6,73.8 -18.2,102.9"
             id="path162" />
        </g>
      </g>
    </g>
  </g>
  <text
     xml:space="preserve"
     style="font-weight:600;font-size:32px;font-family:Metropolis;-inkscape-font-specification:'Metropolis, Semi-Bold';fill:#4d4d4d"
     x="3.3105125"
     y="122.14561"
     id="text389"><tspan
       sodipodi:role="line"
       id="tspan387"
       x="3.3105125"
       y="122.14561"
       style="font-style:normal;font-variant:normal;font-weight:normal;font-stretch:normal;font-size:32px;font-family:Rockwell;-inkscape-font-specification:'Rockwell, Normal';font-variant-ligatures:normal;font-variant-caps:normal;font-variant-numeric:normal;font-variant-east-asian:normal">grapio</tspan></text>
</svg>
